<svg width="34" height="34" viewBox="0 0 34 34" fill="none" xmlns="http://www.w3.org/2000/svg">
<path d="M19.1505 2.18489V3.30445C19.1505 4.03052 19.6398 4.65922 20.3391 4.85458C25.5486 6.30976 29.3656 11.0869 29.3656 16.7644C29.3656 23.5984 23.835 29.13 17 29.13C10.1661 29.13 4.63442 23.5995 4.63442 16.7644C4.63442 11.0877 8.45068 6.30989 13.6608 4.85458C14.3601 4.65922 14.8495 4.03039 14.8495 3.30425V2.18543C14.8495 1.12972 13.8526 0.360636 12.8302 0.624009C5.6158 2.48234 0.29262 9.04981 0.333547 16.854C0.381934 26.0644 7.82527 33.4505 17.0359 33.431C26.2241 33.4117 33.6666 25.9572 33.6666 16.7644C33.6666 8.99342 28.3481 2.4648 21.1525 0.619574C20.137 0.359157 19.1505 1.13651 19.1505 2.18489Z" fill="#05CD99"/>
</svg>
