<svg width="34" height="34" viewBox="0 0 34 34" fill="none" xmlns="http://www.w3.org/2000/svg">
<path d="M17 0.333332C7.79299 0.333332 0.333313 7.79301 0.333313 17C0.333313 26.207 7.79299 33.6667 17 33.6667C26.207 33.6667 33.6666 26.207 33.6666 17C33.6666 7.79301 26.207 0.333332 17 0.333332ZM25.172 21.375C25.4879 21.6909 25.4879 22.2016 25.172 22.5175L22.5107 25.172C22.1949 25.4879 21.6841 25.4879 21.3683 25.172L17 20.7634L12.625 25.172C12.3091 25.4879 11.7984 25.4879 11.4825 25.172L8.82794 22.5108C8.51208 22.1949 8.51208 21.6841 8.82794 21.3683L13.2365 17L8.82794 12.625C8.51208 12.3091 8.51208 11.7984 8.82794 11.4825L11.4892 8.82124C11.8051 8.50538 12.3158 8.50538 12.6317 8.82124L17 13.2366L21.375 8.82796C21.6908 8.5121 22.2016 8.5121 22.5175 8.82796L25.1787 11.4892C25.4946 11.8051 25.4946 12.3159 25.1787 12.6317L20.7634 17L25.172 21.375Z" fill="#FF5252"/>
</svg>
