<svg width="32" height="29" viewBox="0 0 32 29" fill="none" xmlns="http://www.w3.org/2000/svg">
<path d="M3.45 29H28.55C31.1167 29 32.7167 26.2167 31.4333 24L18.8833 2.31666C17.6 0.0999929 14.4 0.0999929 13.1167 2.31666L0.566665 24C-0.716668 26.2167 0.883331 29 3.45 29V29ZM16 17.3333C15.0833 17.3333 14.3333 16.5833 14.3333 15.6667V12.3333C14.3333 11.4167 15.0833 10.6667 16 10.6667C16.9167 10.6667 17.6667 11.4167 17.6667 12.3333V15.6667C17.6667 16.5833 16.9167 17.3333 16 17.3333ZM17.6667 24H14.3333V20.6667H17.6667V24Z" fill="#FF7D00"/>
</svg>
